<?xml version="1.0" encoding="utf-8"?>
<!-- Generator: Adobe Illustrator 23.0.1, SVG Export Plug-In . SVG Version: 6.00 Build 0)  -->
<svg version="1.1" id="Layer_1" xmlns="http://www.w3.org/2000/svg" xmlns:xlink="http://www.w3.org/1999/xlink" x="0px" y="0px"
	 viewBox="0 0 220 49" style="enable-background:new 0 0 220 49;" xml:space="preserve">
<style type="text/css">
	.st0{filter:url(#Adobe_OpacityMaskFilter);}
	.st1{fill-rule:evenodd;clip-rule:evenodd;fill:#FFFFFF;}
	.st2{mask:url(#b_7_);fill-rule:evenodd;clip-rule:evenodd;fill:#432B74;}
	.st3{fill-rule:evenodd;clip-rule:evenodd;fill:#1A95FA;}
	.st4{opacity:0.5;fill-rule:evenodd;clip-rule:evenodd;fill:#1A95FA;}
	.st5{fill-rule:evenodd;clip-rule:evenodd;fill:#5320AA;}
	.st6{fill-rule:evenodd;clip-rule:evenodd;fill:#37C6FE;}
</style>
<g>
	<g transform="translate(45.626 10.46)">
		<g>
			<defs>
				<filter id="Adobe_OpacityMaskFilter" filterUnits="userSpaceOnUse" x="0.2" y="0.1" width="174" height="35.4">
					<feColorMatrix  type="matrix" values="1 0 0 0 0  0 1 0 0 0  0 0 1 0 0  0 0 0 1 0"/>
				</filter>
			</defs>
			<mask maskUnits="userSpaceOnUse" x="0.2" y="0.1" width="174" height="35.4" id="b_7_">
				<g class="st0">
					<path id="a_7_" class="st1" d="M0.2,0.1h174v35.4H0.2L0.2,0.1z"/>
				</g>
			</mask>
			<path class="st2" d="M10.7,12.3c-3,0-5.5,2.3-5.5,5.6c0,3.5,2.5,5.6,5.5,5.6c3,0,5.4-2.3,5.4-5.6C16.1,14.4,13.7,12.3,10.7,12.3z
				 M0.2,0.3h4.7v10.6c1.1-2,4.2-3.1,6.2-3.1c5.6,0,9.7,3.4,9.7,10.1c0,6.3-4.2,10.1-9.8,10.1c-2.3,0-4.7-0.8-6.1-3.1l-0.3,2.6H0.2
				V0.3L0.2,0.3z M23.2,27.5h4.7V8.2h-4.7L23.2,27.5L23.2,27.5z M22.7,2.9c0-3.7,5.6-3.7,5.6,0C28.3,6.6,22.7,6.6,22.7,2.9z
				 M49.7,27.5H45V17.4c0-2.9-1.6-5.1-4.6-5.1c-2.9,0-4.9,2.5-4.9,5.4v9.8h-4.7V8.2H35l0.3,2.6C37.3,8.9,39.2,8,41.6,8
				c4.5,0,8.1,3.4,8.1,9.4L49.7,27.5L49.7,27.5z M67.5,10.9l0.2-2.6h4.5v19.2h-4.4l-0.2-2.8c-1.1,2.3-4.1,3.4-6.2,3.4
				c-5.6,0-9.8-3.5-9.8-10.2c0-6.6,4.4-10.1,9.9-10.1C64,7.8,66.4,9,67.5,10.9z M61.9,12.1c-3.1,0-5.6,2.1-5.6,5.8
				c0,3.7,2.5,5.8,5.6,5.8C69.3,23.7,69.3,12.1,61.9,12.1z M75,8.3h4.4l0.3,2.2c1.5-2.4,3.4-2.7,5.4-2.7c2,0,3.9,0.8,4.9,1.8
				l-2.1,4.1c-1-0.8-1.9-1.2-3.4-1.2c-2.5,0-4.7,1.3-4.7,4.9v10.1H75L75,8.3L75,8.3z M107.6,8.2h1.9v19.2h-1.9v-4.1
				c-1.9,3-4.7,4.4-7.8,4.4c-5.3,0-9.7-4.1-9.7-9.9c0-5.9,4.4-9.9,9.7-9.9c3.1,0,6.2,1.4,7.8,4.4L107.6,8.2L107.6,8.2z M99.8,9.8
				c-4.3,0-7.8,3.2-7.8,8c0,4.8,3.5,8.1,7.8,8.1C110.4,25.9,110.4,9.8,99.8,9.8z M123.1,26c4.3,0,7.8-2.7,7.8-8.1s-3.5-8.1-7.8-8.1
				c-4.4,0-7.7,3.4-7.7,8.1C115.4,22.6,118.8,26,123.1,26z M115.3,35.5h-1.8V8.2h1.9v4.6c1.5-2.9,4.6-4.8,8.3-4.8
				c5.2,0.2,9.3,3.7,9.3,9.9c0,6.5-4.3,10-9.7,10c-3.2,0-6.3-1.6-7.9-4.8L115.3,35.5L115.3,35.5z M146,26c4.3,0,7.8-2.7,7.8-8.1
				s-3.5-8.1-7.8-8.1c-4.4,0-7.7,3.4-7.7,8.1C138.2,22.6,141.6,26,146,26z M138.1,35.5h-1.8V8.2h1.9v4.6c1.5-2.9,4.6-4.8,8.3-4.8
				c5.2,0.2,9.3,3.7,9.3,9.9c0,6.5-4.3,10-9.7,10c-3.2,0-6.3-1.6-7.9-4.8L138.1,35.5L138.1,35.5z M173.4,10.5l-1.2,1.2
				c-1.9-1.7-3.8-2-5.9-2c-3,0-5.8,1.1-5.7,3.5c0.1,2.6,3.4,3.1,5.8,3.5c3.4,0.6,8.1,1.2,7.9,5.6c-0.1,4.2-4.5,5.4-7.8,5.4
				c-3.4,0-6.7-1.3-8.3-3.9l1.4-1.2c1.6,2.3,4.4,3.3,7,3.3c2.3,0,5.8-0.6,5.9-3.7c0.1-2.8-3.1-3.3-6.2-3.8c-3.7-0.6-7.4-1.3-7.4-5.2
				c0-3.8,3.7-5.4,7.6-5.4C169,7.9,171.5,8.7,173.4,10.5z"/>
		</g>
	</g>
	<g transform="translate(0 8.087)">
		<g>
			<g>
				<path id="c_8_" class="st3" d="M20.4,16.5l-1.9,1.2c-0.1,0.1-0.3,0.1-0.4,0.2L3.9,26.1c-2.4,1.4-3.8,4-3.9,6.6l0,0V0.2l0,0
					c0.1,2.6,1.5,5.2,3.9,6.6L18.1,15c0.1,0.1,0.3,0.1,0.4,0.2L20.4,16.5L20.4,16.5z"/>
			</g>
			<g>
				<g>
					<path class="st4" d="M20.4,16.5l-1.9,1.2c-0.1,0.1-0.3,0.1-0.4,0.2L3.9,26.1c-2.4,1.4-3.8,4-3.9,6.6l0,0V0.2l0,0
						c0.1,2.6,1.5,5.2,3.9,6.6L18.1,15c0.1,0.1,0.3,0.1,0.4,0.2L20.4,16.5L20.4,16.5z"/>
				</g>
			</g>
		</g>
	</g>
	<path class="st5" d="M27,11.4c-0.7-1.1-1.6-2.1-2.8-2.7L11.5,1.4C7.8-0.8,3.1,0.5,1,4.3C0.3,5.5,0,6.8,0,8.1l0.2,1.5
		c0.4,2.2,1.8,4.1,3.7,5.2l14.2,8.3c0.1,0.1,0.3,0.1,0.4,0.2l1.9,1.2l4-2.5C28,19.9,29.2,15.1,27,11.4"/>
	<path class="st6" d="M27,37.7c-0.7,1.1-1.6,2.1-2.8,2.7l-12.7,7.3C7.8,49.8,3.1,48.5,1,44.8c-0.7-1.2-1-2.5-1-3.9l0.2-1.5
		c0.4-2.2,1.8-4.1,3.7-5.2l14.2-8.3c0.1-0.1,0.3-0.1,0.4-0.2l1.9-1.2l4,2.5C28,29.2,29.2,34,27,37.7"/>
</g>
</svg>
