<svg width="204" height="31" viewBox="0 0 204 31" fill="none" xmlns="http://www.w3.org/2000/svg">
<path d="M0.611237 11.549H5.52253V26.5085H0.611237V11.549Z" fill="#FF4040"/>
<path d="M18.9301 26.5085V15.9634H13.9029V26.5085H8.98932V11.549H23.8425V26.5085H18.9301Z" fill="#FF4040"/>
<path d="M28.8716 15.9008H26.1486V11.5491H28.8716V5.56442H38.585V9.91621H33.7851V11.5491H38.585V15.9008H33.7851V26.5085H28.8716V15.9008Z" fill="#FF4040"/>
<path d="M45.2765 19.0288C45.2765 21.1226 46.75 22.4556 48.6276 22.4556C50.5356 22.4556 51.9799 21.1226 51.9799 19.0288C51.9799 16.9615 50.5356 15.601 48.6276 15.6063C46.7207 15.601 45.2765 16.9615 45.2765 19.0288ZM56.9508 19.0288C56.9508 23.5438 53.2811 26.8624 48.6276 26.8624C43.9763 26.8624 40.3067 23.5162 40.3067 19.0288C40.3067 14.5138 44.0338 11.1952 48.6276 11.1952C53.2226 11.1952 56.9508 14.5138 56.9508 19.0288Z" fill="#FF4040"/>
<path d="M102.11 11.5491V26.5085H97.1961V15.9644H92.0529V26.5085H87.1405V5.56442H92.0529V11.5491H102.11Z" fill="#FF4040"/>
<path d="M109.966 19.0288C109.966 21.1226 111.439 22.4556 113.317 22.4556C115.224 22.4556 116.669 21.1226 116.669 19.0288C116.669 16.9615 115.224 15.601 113.317 15.6063C111.41 15.601 109.966 16.9615 109.966 19.0288ZM116.669 13.2391V11.5491H121.581V26.5085H116.669V24.8937C115.648 26.0677 114.18 26.8624 112.161 26.8624C108.116 26.8624 104.995 23.6529 104.995 19.0288C104.995 14.3782 108.174 11.1952 112.133 11.1952C114.163 11.1952 115.642 12.0238 116.669 13.2391Z" fill="#FF4040"/>
<path d="M129.957 15.9644V26.5085H125.046V11.549H135.361V15.9644H129.957Z" fill="#FF4040"/>
<path d="M142.45 16.8651H148.281C147.879 15.4749 146.552 14.9758 145.388 14.9758C144.009 14.9758 142.972 15.672 142.45 16.8651ZM145.301 11.1952C149.376 11.1952 152.929 13.7244 153.458 17.8156C153.576 18.7236 153.507 19.388 153.429 19.9146H142.093C142.267 21.8208 143.597 22.9451 145.474 22.9451C146.861 22.9451 148.104 22.3199 148.402 21.023H153.458C152.843 24.7411 149.319 26.8624 145.446 26.8624C140.562 26.8624 137.095 23.4622 137.095 19.0383C137.095 14.5954 140.591 11.1952 145.301 11.1952Z" fill="#FF4040"/>
<path d="M64.7494 15.2206V16.917H83.6753V26.5085H59.837V22.837H78.764V20.8608H59.837V11.549H83.6753V15.2206H64.7494Z" fill="#FF4040"/>
<path d="M187.317 26.1333C184.797 25.6321 182.915 24.415 181.508 22.8511L184.797 19.9002C186.288 21.4778 187.838 22.3533 190.041 22.3533C191.841 22.3533 193.113 21.3902 193.113 19.8418C193.113 19.6959 193.113 19.5586 193.091 19.423L193.083 19.3904C192.83 17.9827 191.353 17.2119 188.876 17.2119H186.578L186.584 13.9795L191.313 9.98317H184.749V9.9952L173.282 10.0124V13.0474L181.667 13.0491V17.4729L173.28 17.4712V26.4114H168.349V5.58857H197.478V9.40982L196.8 9.98317H196.809L191.978 13.9126C194.309 14.2782 196.882 15.255 197.891 17.4969L203.203 13.1572V1H163.474V31H181.359L187.317 26.1333Z" fill="#FF4040"/>
<path d="M0 0.570136C0 0.570136 4.14583 -0.712669 7 0.570136C9.85417 1.85294 14 0.570136 14 0.570136V4.41855C14 4.41855 11.2778 6.10714 7 4.41855C2.72222 2.72996 0 4.41855 0 4.41855V0.570136Z" fill="#005BBB"/>
<path d="M0 4.41855C0 4.41855 2.72222 2.72996 7 4.41855C11.2778 6.10714 14 4.41855 14 4.41855V8.26697C14 8.26697 10.5417 9.91629 7 8.26697C3.45833 6.61764 0 8.26697 0 8.26697V4.41855Z" fill="#FFD500"/>
</svg>
