<svg width="927" height="454" viewBox="0 0 927 454" fill="none" xmlns="http://www.w3.org/2000/svg">
<path d="M462.207 42.705L463.514 407.284" stroke="#9CA3AF" stroke-width="3" stroke-dasharray="3 3"/>
<path d="M877 226.5H47" stroke="#9CA3AF" stroke-width="3" stroke-dasharray="3 3"/>
<path d="M0.909103 248.545V266H3.9432V253.983H4.1051L8.929 265.949H11.196L16.0199 254.009H16.1818V266H19.2159V248.545H15.3466L10.1648 261.193H9.96021L4.7784 248.545H0.909103ZM28.233 266.256C32.0682 266.256 34.5057 263.554 34.5057 259.506C34.5057 255.449 32.0682 252.739 28.233 252.739C24.3977 252.739 21.9602 255.449 21.9602 259.506C21.9602 263.554 24.3977 266.256 28.233 266.256ZM28.25 263.784C26.1278 263.784 25.0881 261.892 25.0881 259.497C25.0881 257.102 26.1278 255.185 28.25 255.185C30.3381 255.185 31.3778 257.102 31.3778 259.497C31.3778 261.892 30.3381 263.784 28.25 263.784ZM41.9822 266.23C44.2322 266.23 45.2464 264.892 45.7322 263.938H45.9197V266H48.9538V248.545H45.8601V255.074H45.7322C45.2635 254.128 44.3004 252.739 41.9908 252.739C38.9652 252.739 36.5874 255.108 36.5874 259.472C36.5874 263.784 38.897 266.23 41.9822 266.23ZM42.843 263.699C40.8061 263.699 39.7322 261.909 39.7322 259.455C39.7322 257.017 40.7891 255.27 42.843 255.27C44.8288 255.27 45.9197 256.915 45.9197 259.455C45.9197 261.994 44.8118 263.699 42.843 263.699ZM60.5852 260.494C60.5852 262.489 59.1619 263.477 57.7983 263.477C56.3153 263.477 55.3267 262.429 55.3267 260.767V252.909H52.2415V261.244C52.2415 264.389 54.0312 266.17 56.6051 266.17C58.5653 266.17 59.946 265.139 60.5426 263.673H60.679V266H63.6705V252.909H60.5852V260.494ZM69.928 248.545H66.843V266H69.928V248.545ZM76.868 266.264C78.922 266.264 80.149 265.301 80.712 264.202H80.814V266H83.78V257.239C83.78 253.778 80.959 252.739 78.462 252.739C75.709 252.739 73.595 253.966 72.913 256.352L75.794 256.761C76.101 255.866 76.97 255.099 78.479 255.099C79.911 255.099 80.695 255.832 80.695 257.119V257.17C80.695 258.057 79.766 258.099 77.456 258.347C74.916 258.619 72.487 259.378 72.487 262.327C72.487 264.901 74.371 266.264 76.868 266.264ZM77.669 263.997C76.382 263.997 75.462 263.409 75.462 262.276C75.462 261.091 76.493 260.597 77.874 260.401C78.683 260.29 80.303 260.085 80.703 259.761V261.304C80.703 262.761 79.527 263.997 77.669 263.997ZM86.882 266H89.967V258.304C89.967 256.642 91.22 255.466 92.916 255.466C93.436 255.466 94.084 255.56 94.348 255.645V252.807C94.067 252.756 93.581 252.722 93.24 252.722C91.74 252.722 90.487 253.574 90.01 255.091H89.874V252.909H86.882V266Z" fill="#A8A8A8"/>
<path d="M827.116 187.545V205H830.15V192.983H830.312L835.136 204.949H837.403L842.227 193.009H842.389V205H845.423V187.545H841.554L836.372 200.193H836.167L830.985 187.545H827.116ZM854.44 205.256C858.275 205.256 860.713 202.554 860.713 198.506C860.713 194.449 858.275 191.739 854.44 191.739C850.605 191.739 848.167 194.449 848.167 198.506C848.167 202.554 850.605 205.256 854.44 205.256ZM854.457 202.784C852.335 202.784 851.295 200.892 851.295 198.497C851.295 196.102 852.335 194.185 854.457 194.185C856.545 194.185 857.585 196.102 857.585 198.497C857.585 200.892 856.545 202.784 854.457 202.784ZM866.417 197.33C866.417 195.438 867.559 194.347 869.186 194.347C870.78 194.347 871.735 195.395 871.735 197.142V205H874.82V196.665C874.828 193.528 873.039 191.739 870.337 191.739C868.377 191.739 867.03 192.676 866.434 194.134H866.28V191.909H863.331V205H866.417V197.33ZM883.667 205.256C887.502 205.256 889.939 202.554 889.939 198.506C889.939 194.449 887.502 191.739 883.667 191.739C879.831 191.739 877.394 194.449 877.394 198.506C877.394 202.554 879.831 205.256 883.667 205.256ZM883.684 202.784C881.561 202.784 880.522 200.892 880.522 198.497C880.522 196.102 881.561 194.185 883.684 194.185C885.772 194.185 886.811 196.102 886.811 198.497C886.811 200.892 885.772 202.784 883.684 202.784ZM895.643 187.545H892.558V205H895.643V187.545ZM898.816 205H901.901V191.909H898.816V205ZM900.367 190.051C901.347 190.051 902.148 189.301 902.148 188.381C902.148 187.452 901.347 186.702 900.367 186.702C899.378 186.702 898.577 187.452 898.577 188.381C898.577 189.301 899.378 190.051 900.367 190.051ZM911.61 191.909H909.028V188.773H905.943V191.909H904.085V194.295H905.943V201.574C905.926 204.037 907.716 205.247 910.034 205.179C910.912 205.153 911.517 204.983 911.849 204.872L911.329 202.46C911.159 202.503 910.809 202.58 910.426 202.58C909.65 202.58 909.028 202.307 909.028 201.062V194.295H911.61V191.909ZM917.557 197.33C917.557 195.438 918.733 194.347 920.387 194.347C922.006 194.347 922.961 195.378 922.961 197.142V205H926.046V196.665C926.046 193.503 924.256 191.739 921.537 191.739C919.526 191.739 918.248 192.651 917.642 194.134H917.489V187.545H914.472V205H917.557V197.33Z" fill="#A8A8A8"/>
<path d="M411.835 449H414.997V443.102H418.338C422.369 443.102 424.534 440.682 424.534 437.324C424.534 433.991 422.395 431.545 418.38 431.545H411.835V449ZM414.997 440.503V434.188H417.895C420.264 434.188 421.312 435.466 421.312 437.324C421.312 439.182 420.264 440.503 417.912 440.503H414.997ZM432.667 449.256C436.502 449.256 438.939 446.554 438.939 442.506C438.939 438.449 436.502 435.739 432.667 435.739C428.831 435.739 426.394 438.449 426.394 442.506C426.394 446.554 428.831 449.256 432.667 449.256ZM432.684 446.784C430.561 446.784 429.522 444.892 429.522 442.497C429.522 440.102 430.561 438.185 432.684 438.185C434.772 438.185 435.811 440.102 435.811 442.497C435.811 444.892 434.772 446.784 432.684 446.784ZM444.643 431.545H441.558V449H444.643V431.545ZM449.733 453.909C452.137 453.909 453.526 452.673 454.267 450.585L459.526 435.926L456.228 435.909L453.202 445.795H453.066L450.049 435.909H446.776L451.523 449.273L451.259 449.98C450.688 451.472 449.784 451.574 448.438 451.182L447.722 453.585C448.14 453.756 448.89 453.909 449.733 453.909ZM461.667 449H464.752V441.304C464.752 439.642 466.005 438.466 467.701 438.466C468.221 438.466 468.869 438.56 469.133 438.645V435.807C468.852 435.756 468.366 435.722 468.025 435.722C466.525 435.722 465.272 436.574 464.795 438.091H464.659V435.909H461.667V449ZM476.439 449.256C479.49 449.256 481.587 447.764 482.132 445.489L479.252 445.165C478.834 446.273 477.811 446.852 476.482 446.852C474.488 446.852 473.167 445.54 473.141 443.298H482.26V442.352C482.26 437.759 479.499 435.739 476.277 435.739C472.527 435.739 470.081 438.491 470.081 442.531C470.081 446.639 472.493 449.256 476.439 449.256ZM473.15 441.219C473.243 439.548 474.479 438.142 476.32 438.142C478.093 438.142 479.286 439.438 479.303 441.219H473.15ZM484.87 453.909H487.956V446.938H488.083C488.569 447.892 489.583 449.23 491.833 449.23C494.919 449.23 497.228 446.784 497.228 442.472C497.228 438.108 494.85 435.739 491.825 435.739C489.515 435.739 488.552 437.128 488.083 438.074H487.904V435.909H484.87V453.909ZM487.896 442.455C487.896 439.915 488.987 438.27 490.973 438.27C493.027 438.27 494.083 440.017 494.083 442.455C494.083 444.909 493.01 446.699 490.973 446.699C489.004 446.699 487.896 444.994 487.896 442.455ZM505.581 449.256C509.416 449.256 511.853 446.554 511.853 442.506C511.853 438.449 509.416 435.739 505.581 435.739C501.745 435.739 499.308 438.449 499.308 442.506C499.308 446.554 501.745 449.256 505.581 449.256ZM505.598 446.784C503.475 446.784 502.436 444.892 502.436 442.497C502.436 440.102 503.475 438.185 505.598 438.185C507.686 438.185 508.725 440.102 508.725 442.497C508.725 444.892 507.686 446.784 505.598 446.784Z" fill="#A8A8A8"/>
<path d="M404.03 0.544998V18H407.064V5.983H407.226L412.05 17.949H414.317L419.141 6.009H419.303V18H422.337V0.544998H418.468L413.286 13.193H413.081L407.9 0.544998H404.03ZM431.354 18.256C435.189 18.256 437.627 15.554 437.627 11.506C437.627 7.449 435.189 4.739 431.354 4.739C427.519 4.739 425.081 7.449 425.081 11.506C425.081 15.554 427.519 18.256 431.354 18.256ZM431.371 15.784C429.249 15.784 428.209 13.892 428.209 11.497C428.209 9.10199 429.249 7.185 431.371 7.185C433.459 7.185 434.499 9.10199 434.499 11.497C434.499 13.892 433.459 15.784 431.371 15.784ZM443.331 10.33C443.331 8.438 444.473 7.347 446.1 7.347C447.694 7.347 448.649 8.395 448.649 10.142V18H451.734V9.66499C451.743 6.52799 449.953 4.739 447.251 4.739C445.291 4.739 443.944 5.676 443.348 7.134H443.194V4.909H440.245V18H443.331V10.33ZM460.581 18.256C464.416 18.256 466.853 15.554 466.853 11.506C466.853 7.449 464.416 4.739 460.581 4.739C456.745 4.739 454.308 7.449 454.308 11.506C454.308 15.554 456.745 18.256 460.581 18.256ZM460.598 15.784C458.475 15.784 457.436 13.892 457.436 11.497C457.436 9.10199 458.475 7.185 460.598 7.185C462.686 7.185 463.725 9.10199 463.725 11.497C463.725 13.892 462.686 15.784 460.598 15.784ZM469.472 18H472.557V10.304C472.557 8.642 473.81 7.466 475.506 7.466C476.026 7.466 476.674 7.56 476.938 7.645V4.80701C476.657 4.75601 476.171 4.722 475.83 4.722C474.33 4.722 473.077 5.574 472.6 7.091H472.463V4.909H469.472V18ZM484.244 18.256C487.295 18.256 489.392 16.764 489.937 14.489L487.056 14.165C486.639 15.273 485.616 15.852 484.287 15.852C482.292 15.852 480.971 14.54 480.946 12.298H490.065V11.352C490.065 6.75901 487.304 4.739 484.082 4.739C480.332 4.739 477.886 7.49101 477.886 11.531C477.886 15.639 480.298 18.256 484.244 18.256ZM480.954 10.219C481.048 8.54799 482.284 7.142 484.125 7.142C485.897 7.142 487.091 8.43799 487.108 10.219H480.954ZM492.675 22.909H495.76V15.938H495.888C496.374 16.892 497.388 18.23 499.638 18.23C502.723 18.23 505.033 15.784 505.033 11.472C505.033 7.108 502.655 4.739 499.63 4.739C497.32 4.739 496.357 6.12801 495.888 7.07401H495.709V4.909H492.675V22.909ZM495.701 11.455C495.701 8.915 496.792 7.27 498.777 7.27C500.831 7.27 501.888 9.017 501.888 11.455C501.888 13.909 500.814 15.699 498.777 15.699C496.809 15.699 495.701 13.994 495.701 11.455ZM513.385 18.256C517.221 18.256 519.658 15.554 519.658 11.506C519.658 7.449 517.221 4.739 513.385 4.739C509.55 4.739 507.113 7.449 507.113 11.506C507.113 15.554 509.55 18.256 513.385 18.256ZM513.402 15.784C511.28 15.784 510.24 13.892 510.24 11.497C510.24 9.10199 511.28 7.185 513.402 7.185C515.49 7.185 516.53 9.10199 516.53 11.497C516.53 13.892 515.49 15.784 513.402 15.784Z" fill="#A8A8A8"/>
<path d="M89.843 72.06H92.545C91.957 68.659 89.051 66.307 85.284 66.307C80.767 66.307 77.468 69.707 77.468 75.281C77.468 80.804 80.673 84.239 85.403 84.239C89.639 84.239 92.664 81.46 92.664 77.054V75.068H85.804V77.241H90.116C90.056 80.054 88.199 81.835 85.403 81.835C82.326 81.835 80.085 79.509 80.085 75.264C80.085 71.037 82.343 68.71 85.301 68.71C87.619 68.71 89.187 69.989 89.843 72.06ZM101.317 84.264C105.007 84.264 107.419 81.562 107.419 77.514C107.419 73.44 105.007 70.739 101.317 70.739C97.627 70.739 95.215 73.44 95.215 77.514C95.215 81.562 97.627 84.264 101.317 84.264ZM101.326 82.125C98.914 82.125 97.789 80.02 97.789 77.506C97.789 75 98.914 72.869 101.326 72.869C103.721 72.869 104.846 75 104.846 77.506C104.846 80.02 103.721 82.125 101.326 82.125ZM115.778 84.264C119.468 84.264 121.88 81.562 121.88 77.514C121.88 73.44 119.468 70.739 115.778 70.739C112.088 70.739 109.676 73.44 109.676 77.514C109.676 81.562 112.088 84.264 115.778 84.264ZM115.787 82.125C113.375 82.125 112.25 80.02 112.25 77.506C112.25 75 113.375 72.869 115.787 72.869C118.181 72.869 119.306 75 119.306 77.506C119.306 80.02 118.181 82.125 115.787 82.125ZM130.213 89.182C133.546 89.182 136.12 87.656 136.12 84.29V70.909H133.623V73.031H133.435C132.983 72.222 132.08 70.739 129.642 70.739C126.48 70.739 124.154 73.236 124.154 77.403C124.154 81.58 126.532 83.804 129.625 83.804C132.029 83.804 132.958 82.449 133.418 81.614H133.58V84.188C133.58 86.241 132.174 87.128 130.239 87.128C128.117 87.128 127.29 86.062 126.838 85.312L124.648 86.216C125.338 87.818 127.086 89.182 130.213 89.182ZM130.188 81.69C127.912 81.69 126.728 79.943 126.728 77.369C126.728 74.855 127.887 72.903 130.188 72.903C132.412 72.903 133.605 74.719 133.605 77.369C133.605 80.071 132.387 81.69 130.188 81.69ZM142.086 66.545H139.537V84H142.086V66.545ZM151.156 84.264C154.011 84.264 156.031 82.858 156.61 80.727L154.199 80.293C153.738 81.528 152.63 82.159 151.181 82.159C149 82.159 147.534 80.744 147.466 78.222H156.772V77.318C156.772 72.588 153.943 70.739 150.977 70.739C147.329 70.739 144.926 73.517 144.926 77.54C144.926 81.605 147.295 84.264 151.156 84.264ZM147.474 76.312C147.576 74.455 148.923 72.844 150.994 72.844C152.971 72.844 154.267 74.31 154.275 76.312H147.474Z" fill="#61A8E8"/>
<path d="M78.191 104.545V122H80.697V109.361H80.859L86.006 121.974H88.086L93.234 109.369H93.396V122H95.901V104.545H92.705L87.148 118.114H86.944L81.387 104.545H78.191ZM99.526 122H102.074V108.909H99.526V122ZM100.812 106.889C101.69 106.889 102.423 106.207 102.423 105.372C102.423 104.537 101.69 103.847 100.812 103.847C99.926 103.847 99.202 104.537 99.202 105.372C99.202 106.207 99.926 106.889 100.812 106.889ZM111.016 122.264C114.11 122.264 116.113 120.406 116.394 117.858H113.914C113.59 119.273 112.491 120.108 111.033 120.108C108.877 120.108 107.488 118.31 107.488 115.455C107.488 112.651 108.903 110.886 111.033 110.886C112.653 110.886 113.641 111.909 113.914 113.136H116.394C116.121 110.494 113.965 108.739 110.991 108.739C107.3 108.739 104.914 111.517 104.914 115.514C104.914 119.46 107.215 122.264 111.016 122.264ZM119.119 122H121.668V114.006C121.668 112.293 122.989 111.057 124.795 111.057C125.324 111.057 125.92 111.151 126.125 111.21V108.773C125.869 108.739 125.366 108.713 125.043 108.713C123.509 108.713 122.196 109.582 121.719 110.989H121.582V108.909H119.119V122ZM133.376 122.264C137.066 122.264 139.478 119.562 139.478 115.514C139.478 111.44 137.066 108.739 133.376 108.739C129.685 108.739 127.273 111.44 127.273 115.514C127.273 119.562 129.685 122.264 133.376 122.264ZM133.384 120.125C130.972 120.125 129.847 118.02 129.847 115.506C129.847 113 130.972 110.869 133.384 110.869C135.779 110.869 136.904 113 136.904 115.506C136.904 118.02 135.779 120.125 133.384 120.125ZM152.132 112.105C151.604 110.068 150.01 108.739 147.18 108.739C144.223 108.739 142.126 110.298 142.126 112.616C142.126 114.474 143.251 115.71 145.706 116.256L147.922 116.741C149.183 117.023 149.771 117.585 149.771 118.403C149.771 119.418 148.689 120.21 147.018 120.21C145.493 120.21 144.513 119.554 144.206 118.267L141.743 118.642C142.169 120.96 144.095 122.264 147.036 122.264C150.197 122.264 152.388 120.585 152.388 118.216C152.388 116.366 151.212 115.224 148.808 114.67L146.729 114.193C145.288 113.852 144.666 113.366 144.675 112.48C144.666 111.474 145.757 110.759 147.206 110.759C148.791 110.759 149.524 111.636 149.822 112.514L152.132 112.105ZM160.704 122.264C164.394 122.264 166.806 119.562 166.806 115.514C166.806 111.44 164.394 108.739 160.704 108.739C157.013 108.739 154.602 111.44 154.602 115.514C154.602 119.562 157.013 122.264 160.704 122.264ZM160.712 120.125C158.3 120.125 157.175 118.02 157.175 115.506C157.175 113 158.3 110.869 160.712 110.869C163.107 110.869 164.232 113 164.232 115.506C164.232 118.02 163.107 120.125 160.712 120.125ZM175.881 108.909H173.06V107.733C173.06 106.574 173.537 105.943 174.781 105.943C175.31 105.943 175.685 106.062 175.923 106.139L176.52 104.077C176.162 103.94 175.42 103.727 174.389 103.727C172.318 103.727 170.503 104.938 170.503 107.392V108.909H168.483V110.955H170.503V122H173.06V110.955H175.881V108.909ZM184.621 108.909H181.936V105.773H179.388V108.909H177.47V110.955H179.388V118.685C179.379 121.062 181.195 122.213 183.206 122.17C184.016 122.162 184.561 122.009 184.859 121.898L184.399 119.793C184.229 119.827 183.913 119.903 183.504 119.903C182.678 119.903 181.936 119.631 181.936 118.156V110.955H184.621V108.909Z" fill="#61A8E8"/>
<path d="M208.074 122H210.707V114.389H218.122V112.131H210.707V106.812H218.898V104.545H208.074V122ZM225.695 122.29C227.859 122.29 229.078 121.19 229.564 120.21H229.666V122H232.155V113.307C232.155 109.497 229.155 108.739 227.075 108.739C224.706 108.739 222.524 109.693 221.672 112.08L224.067 112.625C224.442 111.696 225.396 110.801 227.109 110.801C228.754 110.801 229.598 111.662 229.598 113.145V113.205C229.598 114.134 228.643 114.116 226.291 114.389C223.811 114.679 221.271 115.327 221.271 118.301C221.271 120.875 223.206 122.29 225.695 122.29ZM226.249 120.244C224.808 120.244 223.768 119.597 223.768 118.335C223.768 116.972 224.979 116.486 226.453 116.29C227.28 116.179 229.24 115.957 229.607 115.591V117.278C229.607 118.83 228.371 120.244 226.249 120.244ZM241.063 122.264C244.157 122.264 246.16 120.406 246.441 117.858H243.961C243.637 119.273 242.538 120.108 241.08 120.108C238.924 120.108 237.535 118.31 237.535 115.455C237.535 112.651 238.95 110.886 241.08 110.886C242.7 110.886 243.688 111.909 243.961 113.136H246.441C246.168 110.494 244.012 108.739 241.038 108.739C237.347 108.739 234.961 111.517 234.961 115.514C234.961 119.46 237.262 122.264 241.063 122.264ZM254.808 122.264C257.663 122.264 259.683 120.858 260.263 118.727L257.851 118.293C257.391 119.528 256.283 120.159 254.834 120.159C252.652 120.159 251.186 118.744 251.118 116.222H260.425V115.318C260.425 110.588 257.595 108.739 254.629 108.739C250.982 108.739 248.578 111.517 248.578 115.54C248.578 119.605 250.947 122.264 254.808 122.264ZM251.126 114.312C251.229 112.455 252.575 110.844 254.646 110.844C256.624 110.844 257.919 112.31 257.928 114.312H251.126ZM263.457 122H265.945V119.963H266.158C266.619 120.798 267.556 122.256 269.942 122.256C273.113 122.256 275.414 119.716 275.414 115.48C275.414 111.236 273.079 108.739 269.917 108.739C267.488 108.739 266.61 110.222 266.158 111.031H266.005V104.545H263.457V122ZM265.954 115.455C265.954 112.719 267.147 110.903 269.371 110.903C271.681 110.903 272.84 112.855 272.84 115.455C272.84 118.08 271.647 120.082 269.371 120.082C267.181 120.082 265.954 118.207 265.954 115.455ZM283.79 122.264C287.48 122.264 289.892 119.562 289.892 115.514C289.892 111.44 287.48 108.739 283.79 108.739C280.099 108.739 277.688 111.44 277.688 115.514C277.688 119.562 280.099 122.264 283.79 122.264ZM283.798 120.125C281.386 120.125 280.261 118.02 280.261 115.506C280.261 113 281.386 110.869 283.798 110.869C286.193 110.869 287.318 113 287.318 115.506C287.318 118.02 286.193 120.125 283.798 120.125ZM298.251 122.264C301.941 122.264 304.353 119.562 304.353 115.514C304.353 111.44 301.941 108.739 298.251 108.739C294.56 108.739 292.148 111.44 292.148 115.514C292.148 119.562 294.56 122.264 298.251 122.264ZM298.259 120.125C295.847 120.125 294.722 118.02 294.722 115.506C294.722 113 295.847 110.869 298.259 110.869C300.654 110.869 301.779 113 301.779 115.506C301.779 118.02 300.654 120.125 298.259 120.125ZM307.197 122H309.746V117.355L311.016 116.085L315.464 122H318.592L312.933 114.526L318.234 108.909H315.183L309.967 114.449H309.746V104.545H307.197V122Z" fill="#61A8E8"/>
<path d="M217.707 71.131H220.247C220.17 68.335 217.699 66.307 214.153 66.307C210.65 66.307 207.966 68.31 207.966 71.318C207.966 73.747 209.704 75.17 212.508 75.929L214.571 76.491C216.437 76.986 217.877 77.599 217.877 79.151C217.877 80.855 216.25 81.98 214.008 81.98C211.98 81.98 210.292 81.077 210.139 79.176H207.497C207.667 82.338 210.113 84.29 214.025 84.29C218.125 84.29 220.485 82.134 220.485 79.176C220.485 76.031 217.681 74.812 215.466 74.267L213.761 73.824C212.397 73.474 210.582 72.835 210.591 71.165C210.591 69.682 211.946 68.582 214.093 68.582C216.096 68.582 217.52 69.52 217.707 71.131ZM229.539 70.909H226.854V67.773H224.306V70.909H222.388V72.955H224.306V80.685C224.297 83.062 226.113 84.213 228.124 84.17C228.934 84.162 229.479 84.009 229.777 83.898L229.317 81.793C229.147 81.827 228.831 81.903 228.422 81.903C227.596 81.903 226.854 81.631 226.854 80.156V72.955H229.539V70.909ZM232.358 84H234.906V76.006C234.906 74.293 236.227 73.057 238.034 73.057C238.562 73.057 239.159 73.151 239.363 73.21V70.773C239.108 70.739 238.605 70.713 238.281 70.713C236.747 70.713 235.434 71.582 234.957 72.989H234.821V70.909H232.358V84ZM241.569 84H244.117V70.909H241.569V84ZM242.855 68.889C243.733 68.889 244.466 68.207 244.466 67.372C244.466 66.537 243.733 65.847 242.855 65.847C241.969 65.847 241.245 66.537 241.245 67.372C241.245 68.207 241.969 68.889 242.855 68.889ZM247.545 88.909H250.093V81.963H250.247C250.707 82.798 251.645 84.256 254.031 84.256C257.201 84.256 259.502 81.716 259.502 77.48C259.502 73.236 257.167 70.739 254.005 70.739C251.576 70.739 250.699 72.222 250.247 73.031H250.034V70.909H247.545V88.909ZM250.042 77.455C250.042 74.719 251.235 72.903 253.46 72.903C255.77 72.903 256.929 74.855 256.929 77.455C256.929 80.08 255.735 82.082 253.46 82.082C251.27 82.082 250.042 80.207 250.042 77.455ZM268 84.264C270.855 84.264 272.875 82.858 273.454 80.727L271.042 80.293C270.582 81.528 269.474 82.159 268.025 82.159C265.843 82.159 264.377 80.744 264.309 78.222H273.616V77.318C273.616 72.588 270.787 70.739 267.821 70.739C264.173 70.739 261.77 73.517 261.77 77.54C261.77 81.605 264.139 84.264 268 84.264ZM264.318 76.312C264.42 74.455 265.767 72.844 267.838 72.844C269.815 72.844 271.11 74.31 271.119 76.312H264.318Z" fill="#61A8E8"/>
<path d="M129.22 335.273C129.22 329.69 125.879 326.307 121.362 326.307C116.828 326.307 113.496 329.69 113.496 335.273C113.496 340.847 116.828 344.239 121.362 344.239C125.879 344.239 129.22 340.855 129.22 335.273ZM126.612 335.273C126.612 339.526 124.362 341.835 121.362 341.835C118.354 341.835 116.112 339.526 116.112 335.273C116.112 331.02 118.354 328.71 121.362 328.71C124.362 328.71 126.612 331.02 126.612 335.273ZM132.299 348.909H134.847V341.963H135.001C135.461 342.798 136.398 344.256 138.785 344.256C141.955 344.256 144.256 341.716 144.256 337.48C144.256 333.236 141.921 330.739 138.759 330.739C136.33 330.739 135.452 332.222 135.001 333.031H134.788V330.909H132.299V348.909ZM134.796 337.455C134.796 334.719 135.989 332.903 138.214 332.903C140.523 332.903 141.683 334.855 141.683 337.455C141.683 340.08 140.489 342.082 138.214 342.082C136.023 342.082 134.796 340.207 134.796 337.455ZM152.754 344.264C155.609 344.264 157.629 342.858 158.208 340.727L155.796 340.293C155.336 341.528 154.228 342.159 152.779 342.159C150.597 342.159 149.131 340.744 149.063 338.222H158.37V337.318C158.37 332.588 155.54 330.739 152.575 330.739C148.927 330.739 146.523 333.517 146.523 337.54C146.523 341.605 148.893 344.264 152.754 344.264ZM149.072 336.312C149.174 334.455 150.521 332.844 152.592 332.844C154.569 332.844 155.864 334.31 155.873 336.312H149.072ZM163.746 336.227C163.746 334.139 165.024 332.946 166.797 332.946C168.527 332.946 169.575 334.08 169.575 335.98V344H172.124V335.673C172.124 332.435 170.342 330.739 167.666 330.739C165.697 330.739 164.411 331.651 163.805 333.04H163.643V330.909H161.197V344H163.746V336.227ZM191.702 334.105C191.174 332.068 189.58 330.739 186.751 330.739C183.793 330.739 181.697 332.298 181.697 334.616C181.697 336.474 182.822 337.71 185.276 338.256L187.492 338.741C188.754 339.023 189.342 339.585 189.342 340.403C189.342 341.418 188.259 342.21 186.589 342.21C185.063 342.21 184.083 341.554 183.776 340.267L181.313 340.642C181.739 342.96 183.665 344.264 186.606 344.264C189.768 344.264 191.958 342.585 191.958 340.216C191.958 338.366 190.782 337.224 188.379 336.67L186.299 336.193C184.859 335.852 184.237 335.366 184.245 334.48C184.237 333.474 185.327 332.759 186.776 332.759C188.362 332.759 189.094 333.636 189.393 334.514L191.702 334.105ZM200.274 344.264C203.964 344.264 206.376 341.562 206.376 337.514C206.376 333.44 203.964 330.739 200.274 330.739C196.584 330.739 194.172 333.44 194.172 337.514C194.172 341.562 196.584 344.264 200.274 344.264ZM200.283 342.125C197.871 342.125 196.746 340.02 196.746 337.506C196.746 335 197.871 332.869 200.283 332.869C202.678 332.869 203.803 335 203.803 337.506C203.803 340.02 202.678 342.125 200.283 342.125ZM217.513 338.571C217.522 340.795 215.869 341.852 214.437 341.852C212.86 341.852 211.769 340.71 211.769 338.929V330.909H209.221V339.236C209.221 342.483 211.002 344.17 213.516 344.17C215.485 344.17 216.823 343.131 217.428 341.733H217.565V344H220.07V330.909H217.513V338.571ZM223.494 344H226.043V336.006C226.043 334.293 227.364 333.057 229.17 333.057C229.699 333.057 230.295 333.151 230.5 333.21V330.773C230.244 330.739 229.741 330.713 229.418 330.713C227.884 330.713 226.571 331.582 226.094 332.989H225.957V330.909H223.494V344ZM237.751 344.264C240.844 344.264 242.847 342.406 243.129 339.858H240.648C240.325 341.273 239.225 342.108 237.768 342.108C235.612 342.108 234.222 340.31 234.222 337.455C234.222 334.651 235.637 332.886 237.768 332.886C239.387 332.886 240.376 333.909 240.648 335.136H243.129C242.856 332.494 240.7 330.739 237.725 330.739C234.035 330.739 231.648 333.517 231.648 337.514C231.648 341.46 233.95 344.264 237.751 344.264ZM251.496 344.264C254.351 344.264 256.371 342.858 256.95 340.727L254.538 340.293C254.078 341.528 252.97 342.159 251.521 342.159C249.339 342.159 247.874 340.744 247.805 338.222H257.112V337.318C257.112 332.588 254.283 330.739 251.317 330.739C247.669 330.739 245.266 333.517 245.266 337.54C245.266 341.605 247.635 344.264 251.496 344.264ZM247.814 336.312C247.916 334.455 249.263 332.844 251.334 332.844C253.311 332.844 254.607 334.31 254.615 336.312H247.814ZM266.291 348.909H268.839V341.963H268.993C269.453 342.798 270.391 344.256 272.777 344.256C275.947 344.256 278.249 341.716 278.249 337.48C278.249 333.236 275.913 330.739 272.751 330.739C270.322 330.739 269.445 332.222 268.993 333.031H268.78V330.909H266.291V348.909ZM268.788 337.455C268.788 334.719 269.982 332.903 272.206 332.903C274.516 332.903 275.675 334.855 275.675 337.455C275.675 340.08 274.482 342.082 272.206 342.082C270.016 342.082 268.788 340.207 268.788 337.455ZM281.104 344H283.652V336.006C283.652 334.293 284.973 333.057 286.78 333.057C287.308 333.057 287.905 333.151 288.109 333.21V330.773C287.854 330.739 287.351 330.713 287.027 330.713C285.493 330.713 284.18 331.582 283.703 332.989H283.567V330.909H281.104V344ZM295.36 344.264C299.05 344.264 301.462 341.562 301.462 337.514C301.462 333.44 299.05 330.739 295.36 330.739C291.67 330.739 289.258 333.44 289.258 337.514C289.258 341.562 291.67 344.264 295.36 344.264ZM295.369 342.125C292.957 342.125 291.832 340.02 291.832 337.506C291.832 335 292.957 332.869 295.369 332.869C297.763 332.869 298.888 335 298.888 337.506C298.888 340.02 297.763 342.125 295.369 342.125ZM304.307 330.909V344.835C304.307 346.045 303.804 346.71 302.594 346.71H302.185V348.901C302.364 348.909 302.526 348.909 302.705 348.909C305.415 348.909 306.855 347.477 306.855 344.852V330.909H304.307ZM305.568 328.889C306.446 328.889 307.179 328.207 307.179 327.372C307.179 326.537 306.446 325.847 305.568 325.847C304.682 325.847 303.957 326.537 303.957 327.372C303.957 328.207 304.682 328.889 305.568 328.889ZM315.925 344.264C318.781 344.264 320.8 342.858 321.38 340.727L318.968 340.293C318.508 341.528 317.4 342.159 315.951 342.159C313.769 342.159 312.303 340.744 312.235 338.222H321.542V337.318C321.542 332.588 318.712 330.739 315.746 330.739C312.099 330.739 309.695 333.517 309.695 337.54C309.695 341.605 312.065 344.264 315.925 344.264ZM312.244 336.312C312.346 334.455 313.692 332.844 315.763 332.844C317.741 332.844 319.036 334.31 319.045 336.312H312.244ZM329.884 344.264C332.977 344.264 334.98 342.406 335.261 339.858H332.781C332.457 341.273 331.358 342.108 329.901 342.108C327.744 342.108 326.355 340.31 326.355 337.455C326.355 334.651 327.77 332.886 329.901 332.886C331.52 332.886 332.509 333.909 332.781 335.136H335.261C334.989 332.494 332.832 330.739 329.858 330.739C326.168 330.739 323.781 333.517 323.781 337.514C323.781 341.46 326.082 344.264 329.884 344.264ZM344.097 330.909H341.413V327.773H338.864V330.909H336.947V332.955H338.864V340.685C338.856 343.062 340.671 344.213 342.683 344.17C343.492 344.162 344.038 344.009 344.336 343.898L343.876 341.793C343.705 341.827 343.39 341.903 342.981 341.903C342.154 341.903 341.413 341.631 341.413 340.156V332.955H344.097V330.909ZM356.515 334.105C355.987 332.068 354.393 330.739 351.563 330.739C348.606 330.739 346.509 332.298 346.509 334.616C346.509 336.474 347.634 337.71 350.089 338.256L352.305 338.741C353.566 339.023 354.154 339.585 354.154 340.403C354.154 341.418 353.072 342.21 351.401 342.21C349.876 342.21 348.896 341.554 348.589 340.267L346.126 340.642C346.552 342.96 348.478 344.264 351.418 344.264C354.58 344.264 356.771 342.585 356.771 340.216C356.771 338.366 355.594 337.224 353.191 336.67L351.112 336.193C349.671 335.852 349.049 335.366 349.058 334.48C349.049 333.474 350.14 332.759 351.589 332.759C353.174 332.759 353.907 333.636 354.205 334.514L356.515 334.105Z" fill="#61A8E8"/>
<path d="M632.449 93.131H634.989C634.912 90.335 632.441 88.307 628.895 88.307C625.392 88.307 622.708 90.31 622.708 93.318C622.708 95.747 624.446 97.17 627.25 97.929L629.313 98.491C631.179 98.986 632.62 99.599 632.62 101.151C632.62 102.855 630.992 103.98 628.75 103.98C626.722 103.98 625.034 103.077 624.881 101.176H622.239C622.409 104.338 624.855 106.29 628.767 106.29C632.867 106.29 635.228 104.134 635.228 101.176C635.228 98.031 632.424 96.812 630.208 96.267L628.503 95.824C627.14 95.474 625.324 94.835 625.333 93.165C625.333 91.682 626.688 90.582 628.836 90.582C630.838 90.582 632.262 91.52 632.449 93.131ZM643.684 106.264C647.375 106.264 649.787 103.562 649.787 99.514C649.787 95.44 647.375 92.739 643.684 92.739C639.994 92.739 637.582 95.44 637.582 99.514C637.582 103.562 639.994 106.264 643.684 106.264ZM643.693 104.125C641.281 104.125 640.156 102.02 640.156 99.506C640.156 97 641.281 94.869 643.693 94.869C646.088 94.869 647.213 97 647.213 99.506C647.213 102.02 646.088 104.125 643.693 104.125ZM655.179 88.545H652.631V106H655.179V88.545ZM664.122 106.264C667.812 106.264 670.224 103.562 670.224 99.514C670.224 95.44 667.812 92.739 664.122 92.739C660.431 92.739 658.02 95.44 658.02 99.514C658.02 103.562 660.431 106.264 664.122 106.264ZM664.13 104.125C661.718 104.125 660.593 102.02 660.593 99.506C660.593 97 661.718 94.869 664.13 94.869C666.525 94.869 667.65 97 667.65 99.506C667.65 102.02 666.525 104.125 664.13 104.125ZM679.42 110.909H681.968V103.963H682.122C682.582 104.798 683.52 106.256 685.906 106.256C689.076 106.256 691.377 103.716 691.377 99.48C691.377 95.236 689.042 92.739 685.88 92.739C683.451 92.739 682.574 94.222 682.122 95.031H681.909V92.909H679.42V110.909ZM681.917 99.455C681.917 96.719 683.11 94.903 685.335 94.903C687.645 94.903 688.804 96.855 688.804 99.455C688.804 102.08 687.61 104.082 685.335 104.082C683.145 104.082 681.917 102.207 681.917 99.455ZM694.233 106H696.781V98.006C696.781 96.293 698.102 95.057 699.909 95.057C700.437 95.057 701.034 95.151 701.238 95.21V92.773C700.983 92.739 700.48 92.713 700.156 92.713C698.622 92.713 697.309 93.582 696.832 94.989H696.696V92.909H694.233V106ZM708.489 106.264C712.179 106.264 714.591 103.562 714.591 99.514C714.591 95.44 712.179 92.739 708.489 92.739C704.799 92.739 702.387 95.44 702.387 99.514C702.387 103.562 704.799 106.264 708.489 106.264ZM708.498 104.125C706.086 104.125 704.961 102.02 704.961 99.506C704.961 97 706.086 94.869 708.498 94.869C710.892 94.869 712.017 97 712.017 99.506C712.017 102.02 710.892 104.125 708.498 104.125ZM717.436 92.909V106.835C717.436 108.045 716.933 108.71 715.723 108.71H715.314V110.901C715.493 110.909 715.654 110.909 715.833 110.909C718.544 110.909 719.984 109.477 719.984 106.852V92.909H717.436ZM718.697 90.889C719.575 90.889 720.308 90.207 720.308 89.372C720.308 88.537 719.575 87.847 718.697 87.847C717.811 87.847 717.086 88.537 717.086 89.372C717.086 90.207 717.811 90.889 718.697 90.889ZM729.054 106.264C731.909 106.264 733.929 104.858 734.509 102.727L732.097 102.293C731.637 103.528 730.529 104.159 729.08 104.159C726.898 104.159 725.432 102.744 725.364 100.222H734.671V99.318C734.671 94.588 731.841 92.739 728.875 92.739C725.228 92.739 722.824 95.517 722.824 99.54C722.824 103.605 725.194 106.264 729.054 106.264ZM725.373 98.312C725.475 96.455 726.821 94.844 728.892 94.844C730.87 94.844 732.165 96.31 732.174 98.312H725.373ZM743.012 106.264C746.106 106.264 748.109 104.406 748.39 101.858H745.91C745.586 103.273 744.487 104.108 743.029 104.108C740.873 104.108 739.484 102.31 739.484 99.455C739.484 96.651 740.899 94.886 743.029 94.886C744.649 94.886 745.637 95.909 745.91 97.136H748.39C748.118 94.494 745.961 92.739 742.987 92.739C739.297 92.739 736.91 95.517 736.91 99.514C736.91 103.46 739.211 106.264 743.012 106.264ZM757.226 92.909H754.542V89.773H751.993V92.909H750.076V94.955H751.993V102.685C751.985 105.062 753.8 106.213 755.811 106.17C756.621 106.162 757.167 106.009 757.465 105.898L757.005 103.793C756.834 103.827 756.519 103.903 756.11 103.903C755.283 103.903 754.542 103.631 754.542 102.156V94.955H757.226V92.909ZM769.644 96.105C769.115 94.068 767.522 92.739 764.692 92.739C761.735 92.739 759.638 94.298 759.638 96.616C759.638 98.474 760.763 99.71 763.218 100.256L765.434 100.741C766.695 101.023 767.283 101.585 767.283 102.403C767.283 103.418 766.201 104.21 764.53 104.21C763.005 104.21 762.025 103.554 761.718 102.267L759.255 102.642C759.681 104.96 761.607 106.264 764.547 106.264C767.709 106.264 769.9 104.585 769.9 102.216C769.9 100.366 768.723 99.224 766.32 98.67L764.24 98.193C762.8 97.852 762.178 97.366 762.186 96.48C762.178 95.474 763.269 94.759 764.718 94.759C766.303 94.759 767.036 95.636 767.334 96.514L769.644 96.105Z" fill="#61A8E8"/>
<path d="M524.283 322.818V349H528.041V330.041H528.284L536.006 348.962H539.125L546.847 330.054H547.089V349H550.848V322.818H546.054L537.719 343.17H537.412L529.077 322.818H524.283ZM564.556 349.396C570.091 349.396 573.709 345.344 573.709 339.271C573.709 333.161 570.091 329.108 564.556 329.108C559.02 329.108 555.402 333.161 555.402 339.271C555.402 345.344 559.02 349.396 564.556 349.396ZM564.569 346.188C560.951 346.188 559.263 343.03 559.263 339.259C559.263 335.5 560.951 332.304 564.569 332.304C568.161 332.304 569.848 335.5 569.848 339.259C569.848 343.03 568.161 346.188 564.569 346.188ZM592.69 334.158C591.898 331.102 589.507 329.108 585.263 329.108C580.827 329.108 577.682 331.447 577.682 334.925C577.682 337.712 579.369 339.565 583.051 340.384L586.375 341.112C588.267 341.534 589.149 342.378 589.149 343.605C589.149 345.126 587.526 346.315 585.02 346.315C582.732 346.315 581.261 345.331 580.801 343.401L577.107 343.963C577.746 347.44 580.635 349.396 585.045 349.396C589.788 349.396 593.074 346.878 593.074 343.324C593.074 340.55 591.31 338.837 587.705 338.006L584.585 337.29C582.425 336.778 581.491 336.05 581.504 334.72C581.491 333.212 583.128 332.138 585.301 332.138C587.679 332.138 588.778 333.455 589.226 334.771L592.69 334.158ZM606.443 329.364H602.416V324.659H598.593V329.364H595.717V332.432H598.593V344.027C598.581 347.594 601.304 349.32 604.321 349.256C605.535 349.243 606.353 349.013 606.801 348.847L606.11 345.689C605.855 345.74 605.382 345.855 604.768 345.855C603.528 345.855 602.416 345.446 602.416 343.234V332.432H606.443V329.364ZM628.662 349.396C632.944 349.396 635.974 347.287 636.843 344.091L633.225 343.439C632.535 345.293 630.873 346.239 628.7 346.239C625.427 346.239 623.228 344.116 623.126 340.332H637.086V338.977C637.086 331.882 632.842 329.108 628.393 329.108C622.922 329.108 619.316 333.276 619.316 339.31C619.316 345.408 622.87 349.396 628.662 349.396ZM623.139 337.469C623.292 334.682 625.312 332.266 628.419 332.266C631.385 332.266 633.328 334.464 633.341 337.469H623.139ZM645.15 337.341C645.15 334.209 647.067 332.419 649.727 332.419C652.322 332.419 653.894 334.119 653.894 336.97V349H657.717V336.51C657.717 331.652 655.045 329.108 651.031 329.108C648.077 329.108 646.147 330.476 645.239 332.56H644.996V329.364H641.327V349H645.15V337.341ZM672.009 329.364H667.982V324.659H664.16V329.364H661.283V332.432H664.16V344.027C664.147 347.594 666.87 349.32 669.887 349.256C671.102 349.243 671.92 349.013 672.367 348.847L671.677 345.689C671.421 345.74 670.948 345.855 670.335 345.855C669.094 345.855 667.982 345.446 667.982 343.234V332.432H672.009V329.364ZM684.49 349.396C688.772 349.396 691.802 347.287 692.672 344.091L689.054 343.439C688.363 345.293 686.701 346.239 684.528 346.239C681.255 346.239 679.056 344.116 678.954 340.332H692.914V338.977C692.914 331.882 688.67 329.108 684.221 329.108C678.75 329.108 675.145 333.276 675.145 339.31C675.145 345.408 678.699 349.396 684.49 349.396ZM678.967 337.469C679.12 334.682 681.14 332.266 684.247 332.266C687.213 332.266 689.156 334.464 689.169 337.469H678.967ZM697.156 349H700.978V337.009C700.978 334.439 702.96 332.585 705.67 332.585C706.462 332.585 707.357 332.726 707.664 332.815V329.159C707.281 329.108 706.526 329.07 706.04 329.07C703.739 329.07 701.771 330.374 701.055 332.483H700.85V329.364H697.156V349ZM710.972 356.364H714.794V345.945H715.025C715.715 347.197 717.121 349.384 720.701 349.384C725.456 349.384 728.908 345.574 728.908 339.22C728.908 332.854 725.405 329.108 720.662 329.108C717.019 329.108 715.702 331.332 715.025 332.547H714.705V329.364H710.972V356.364ZM714.718 339.182C714.718 335.078 716.507 332.355 719.844 332.355C723.309 332.355 725.047 335.283 725.047 339.182C725.047 343.119 723.257 346.124 719.844 346.124C716.559 346.124 714.718 343.311 714.718 339.182ZM733.191 349H737.013V337.009C737.013 334.439 738.995 332.585 741.705 332.585C742.498 332.585 743.392 332.726 743.699 332.815V329.159C743.316 329.108 742.561 329.07 742.076 329.07C739.775 329.07 737.806 330.374 737.09 332.483H736.885V329.364H733.191V349ZM747.007 349H750.83V329.364H747.007V349ZM748.938 326.334C750.254 326.334 751.354 325.311 751.354 324.058C751.354 322.805 750.254 321.77 748.938 321.77C747.608 321.77 746.521 322.805 746.521 324.058C746.521 325.311 747.608 326.334 748.938 326.334ZM770.686 334.158C769.894 331.102 767.503 329.108 763.259 329.108C758.823 329.108 755.678 331.447 755.678 334.925C755.678 337.712 757.365 339.565 761.047 340.384L764.371 341.112C766.263 341.534 767.145 342.378 767.145 343.605C767.145 345.126 765.522 346.315 763.016 346.315C760.728 346.315 759.257 345.331 758.797 343.401L755.103 343.963C755.742 347.44 758.631 349.396 763.042 349.396C767.784 349.396 771.07 346.878 771.07 343.324C771.07 340.55 769.306 338.837 765.701 338.006L762.581 337.29C760.421 336.778 759.488 336.05 759.5 334.72C759.488 333.212 761.124 332.138 763.297 332.138C765.675 332.138 766.775 333.455 767.222 334.771L770.686 334.158ZM783.736 349.396C788.018 349.396 791.048 347.287 791.918 344.091L788.3 343.439C787.609 345.293 785.947 346.239 783.774 346.239C780.501 346.239 778.303 344.116 778.2 340.332H792.161V338.977C792.161 331.882 787.916 329.108 783.467 329.108C777.996 329.108 774.391 333.276 774.391 339.31C774.391 345.408 777.945 349.396 783.736 349.396ZM778.213 337.469C778.366 334.682 780.386 332.266 783.493 332.266C786.459 332.266 788.402 334.464 788.415 337.469H778.213ZM811.643 349.435C814.891 349.435 816.719 347.786 817.447 346.315H817.601V349H821.334V335.96C821.334 330.246 816.834 329.108 813.714 329.108C810.161 329.108 806.888 330.54 805.609 334.119L809.202 334.938C809.764 333.544 811.196 332.202 813.766 332.202C816.233 332.202 817.499 333.493 817.499 335.717V335.807C817.499 337.2 816.067 337.175 812.538 337.584C808.818 338.018 805.009 338.99 805.009 343.452C805.009 347.312 807.911 349.435 811.643 349.435ZM812.474 346.366C810.314 346.366 808.754 345.395 808.754 343.503C808.754 341.457 810.57 340.729 812.781 340.435C814.021 340.268 816.962 339.936 817.511 339.386V341.918C817.511 344.244 815.658 346.366 812.474 346.366ZM826.425 356.364H830.248V345.945H830.478C831.168 347.197 832.574 349.384 836.154 349.384C840.909 349.384 844.361 345.574 844.361 339.22C844.361 332.854 840.858 329.108 836.115 329.108C832.472 329.108 831.155 331.332 830.478 332.547H830.158V329.364H826.425V356.364ZM830.171 339.182C830.171 335.078 831.961 332.355 835.297 332.355C838.762 332.355 840.5 335.283 840.5 339.182C840.5 343.119 838.711 346.124 835.297 346.124C832.012 346.124 830.171 343.311 830.171 339.182ZM848.644 356.364H852.466V345.945H852.696C853.387 347.197 854.793 349.384 858.373 349.384C863.128 349.384 866.58 345.574 866.58 339.22C866.58 332.854 863.077 329.108 858.334 329.108C854.691 329.108 853.374 331.332 852.696 332.547H852.377V329.364H848.644V356.364ZM852.39 339.182C852.39 335.078 854.179 332.355 857.516 332.355C860.98 332.355 862.719 335.283 862.719 339.182C862.719 343.119 860.929 346.124 857.516 346.124C854.23 346.124 852.39 343.311 852.39 339.182ZM885.577 334.158C884.784 331.102 882.394 329.108 878.15 329.108C873.713 329.108 870.569 331.447 870.569 334.925C870.569 337.712 872.256 339.565 875.938 340.384L879.262 341.112C881.154 341.534 882.036 342.378 882.036 343.605C882.036 345.126 880.412 346.315 877.907 346.315C875.618 346.315 874.148 345.331 873.688 343.401L869.993 343.963C870.632 347.44 873.522 349.396 877.932 349.396C882.675 349.396 885.961 346.878 885.961 343.324C885.961 340.55 884.196 338.837 880.591 338.006L877.472 337.29C875.311 336.778 874.378 336.05 874.391 334.72C874.378 333.212 876.015 332.138 878.188 332.138C880.566 332.138 881.665 333.455 882.113 334.771L885.577 334.158Z" fill="#FF6D74"/>
</svg>
